<svg xmlns="http://www.w3.org/2000/svg" width="64" height="64" viewBox="0 0 64 64" fill="none">
  <rect width="64" height="64" rx="12" fill="#4F46E5" />
  
  <!-- Heart Shape -->
  <path d="M32 45C31.5 45 31 44.8 30.6 44.5C28.1 42.3 23.8 38.5 21.2 34.9C19.4 32.4 18 29.6 18 26.5C18 21.3 22.3 17 27.5 17C29.5 17 31.4 17.7 33 19C34.6 17.7 36.5 17 38.5 17C43.7 17 48 21.3 48 26.5C48 29.6 46.6 32.4 44.8 34.9C42.2 38.5 37.9 42.3 35.4 44.5C35 44.8 34.5 45 34 45H32Z" fill="#EF4444" />
  
  <!-- Speech Bubble 1 -->
  <circle cx="20" cy="24" r="6" fill="white" />
  <!-- Speech Bubble 2 -->
  <circle cx="44" cy="24" r="6" fill="white" />
  
  <!-- Cross Symbol -->
  <path d="M29 24H35M32 21V27" stroke="white" stroke-width="2" stroke-linecap="round" />
</svg> 